<?xml version="1.0" encoding="UTF-8" standalone="no"?>
<svg xmlns:dc="http://purl.org/dc/elements/1.1/" xmlns:cc="http://creativecommons.org/ns#" xmlns:rdf="http://www.w3.org/1999/02/22-rdf-syntax-ns#" xmlns:svg="http://www.w3.org/2000/svg" xmlns="http://www.w3.org/2000/svg" xmlns:xlink="http://www.w3.org/1999/xlink" xmlns:sodipodi="http://sodipodi.sourceforge.net/DTD/sodipodi-0.dtd" xmlns:inkscape="http://www.inkscape.org/namespaces/inkscape" width="126.363" height="88.266998" version="1.1" id="svg86" sodipodi:docname="logo.svg" inkscape:version="1.0.1 (3bc2e813f5, 2020-09-07)">
  <metadata id="metadata92">
    <rdf:RDF>
      <cc:Work rdf:about="">
        <dc:format>image/svg+xml</dc:format>
        <dc:type rdf:resource="http://purl.org/dc/dcmitype/StillImage" />
        <dc:title></dc:title>
      </cc:Work>
    </rdf:RDF>
  </metadata>
  <defs id="defs90" />
  <sodipodi:namedview pagecolor="#ffffff" bordercolor="#666666" borderopacity="1" objecttolerance="10" gridtolerance="10" guidetolerance="10" inkscape:pageopacity="0" inkscape:pageshadow="2" inkscape:window-width="1920" inkscape:window-height="1016" id="namedview88" showgrid="false" inkscape:zoom="4.634864" inkscape:cx="52.975951" inkscape:cy="51.853801" inkscape:window-x="0" inkscape:window-y="0" inkscape:window-maximized="1" inkscape:current-layer="svg86" />
  <g id="g84" transform="translate(-0.84696038,-19.833243)">
    <path d="m 36.91,50.99 c 1.66,-0.28 3.13,-0.94 4.08,-2.14 1.2,-1.54 0.64,-3.02 -0.35,-4.47 C 37,39.09 34.19,33.27 32.2,27.17 c -0.95,-2.93 -1.9,-5.73 -5.05,-6.91 -2.11,-0.78 -4.42,-0.4 -6.46,0.41 -2.41,0.94 -4.78,1.99 -7.29,2.61 -2.52,0.63 -5.18,0.79 -7.77,0.98 -1.29,0.1 -2.49,-0.25 -3.67,0.51 -1,0.64 -1.37,1.7 -0.93,2.81 1.52,3.85 6.29,4.93 9.95,4.93 0.46,0 0.91,0 1.35,0.18 0.73,0.31 0.54,0.74 0.07,1.25 -0.38,0.41 -0.98,0.49 -1.5,0.61 -2.52,0.54 0.61,3.03 1.52,3.41 1.94,0.82 4.11,0.98 6.19,1.02 0.32,0 0.81,-0.04 1.07,0.22 0.89,0.89 -1.44,1.46 -1.79,1.81 -1.07,1.08 0.22,2.12 1.15,2.66 1.89,1.08 3.88,1.12 5.98,0.93 0.67,-0.06 2.4,0.11 1.67,1.13 -1.31,1.84 -1.16,3.08 0.99,4.01 2.27,0.99 6.09,1.77 9.23,1.25 z" style="clip-rule:evenodd;fill:#ffffff;fill-rule:evenodd" id="path2" />
    <path d="m 12.12,24.78 c 4.68,-0.55 10.54,-3.37 13.69,-2.22 3.15,1.15 3.37,3.94 4.8,7.1 1.43,3.15 2.94,7.31 2.94,7.31 0,0 -5.88,-10.6 -8.31,-12.18 C 22.37,22.93 16.5,25.15 12.2,25 12.19,24.99 10.9,24.92 12.12,24.78 Z" style="clip-rule:evenodd;fill:#40c0e7;fill-rule:evenodd" id="path4" />
    <g id="g20">
      <defs id="defs7">
        <path id="SVGID_1_" d="m 36.91,50.99 c 1.66,-0.28 3.13,-0.94 4.08,-2.14 1.2,-1.54 0.64,-3.02 -0.35,-4.47 C 37,39.09 34.19,33.27 32.2,27.17 c -0.95,-2.93 -1.9,-5.73 -5.05,-6.91 -2.11,-0.78 -4.42,-0.4 -6.46,0.41 -2.41,0.94 -4.78,1.99 -7.29,2.61 -2.52,0.63 -5.18,0.79 -7.77,0.98 -1.29,0.1 -2.49,-0.25 -3.67,0.51 -1,0.64 -1.37,1.7 -0.93,2.81 1.52,3.85 6.29,4.93 9.95,4.93 0.46,0 0.91,0 1.35,0.18 0.73,0.31 0.54,0.74 0.07,1.25 -0.38,0.41 -0.98,0.49 -1.5,0.61 -2.52,0.54 0.61,3.03 1.52,3.41 1.94,0.82 4.11,0.98 6.19,1.02 0.32,0 0.81,-0.04 1.07,0.22 0.89,0.89 -1.44,1.46 -1.79,1.81 -1.07,1.08 0.22,2.12 1.15,2.66 1.89,1.08 3.88,1.12 5.98,0.93 0.67,-0.06 2.4,0.11 1.67,1.13 -1.31,1.84 -1.16,3.08 0.99,4.01 2.27,0.99 6.09,1.77 9.23,1.25 z" />
      </defs>
      <clipPath id="SVGID_2_">
        <use style="overflow:visible" xlink:href="#SVGID_1_" id="use9" x="0" y="0" width="100%" height="100%" />
      </clipPath>
      <path d="m 1.29,24.92 c 0,0 -0.06,2.36 2.08,3.58 9.53,5.45 15.77,0.29 17.35,0.64 1.1,0.25 1.07,1 1.07,1 0,0 -5.73,2.58 -10.39,2.51 C 6.74,32.58 2.08,32.58 1.15,30.14 0.22,27.7 -0.35,26.05 -0.35,26.05 Z" style="clip-rule:evenodd;fill:#40c0e7;fill-rule:evenodd" clip-path="url(#SVGID_2_)" id="path12" />
      <path d="m 10.4,34.31 c 0,0.22 -0.57,0.64 0.36,1.29 0.93,0.64 2.39,1.33 3.08,1.5 2.58,0.64 5.88,0.43 7.17,0.43 1.3,0 3.23,-0.86 4.23,-0.14 0.41,0.29 0.36,0.72 0.36,0.72 0,0 -2.8,1 -8.67,1 C 11,39.11 8.33,36.89 8.04,36.32 7.75,35.75 9.26,34.1 9.26,34.1 Z" style="clip-rule:evenodd;fill:#40c0e7;fill-rule:evenodd" clip-path="url(#SVGID_2_)" id="path14" />
      <path d="m 17.42,40.55 c -0.33,-0.55 0.77,1.32 1.72,1.86 2.51,1.43 3.65,1.16 5.59,1.07 1.72,-0.07 3.08,-0.93 4.09,-0.79 0.95,0.14 1.22,0.79 1.22,0.79 0,0 -3.01,1.36 -4.37,1.15 -1.36,-0.22 -7.09,1 -7.45,0.57 -0.36,-0.43 -2.44,-3.01 -2.44,-3.01 z" style="clip-rule:evenodd;fill:#40c0e7;fill-rule:evenodd" clip-path="url(#SVGID_2_)" id="path16" />
      <path d="m 25.09,47.71 c 0.65,0.43 2.37,0.65 3.08,0.57 1.02,-0.1 2.58,-1.15 2.58,-1.15 l 0.07,0.79 -1.65,1.72 -2.51,1.08 -2.29,-1.79 z" style="clip-rule:evenodd;fill:#40c0e7;fill-rule:evenodd" clip-path="url(#SVGID_2_)" id="path18" />
    </g>
    <path d="m 71.79,57.85 c -0.59,2.08 -2.28,4.22 -3.44,6.03 -0.9,1.4 -2.12,2.42 -3.1,3.73 -0.92,1.24 -2.6,2.74 -2.64,4.28 -0.08,3.21 0.3,6.3 0.29,9.47 -0.01,1.14 0.14,2.3 0.28,3.45 0.11,0.97 0.65,2.06 0.62,3.1 1.21,0.19 1.76,-0.17 2.66,-1 1.28,-1.18 2.44,-2.48 3.6,-3.75 1.5,-1.66 2.49,-2.93 3.37,-4.96 0.71,-1.65 1.07,-2.66 0.94,-4.52 -0.13,-1.83 -0.29,-3.63 -0.29,-5.51 z" style="fill:#ffffff" id="path22" />
    <polygon points="48,83.94 46.27,104.58 6.71,89.96 10.73,69.89 " style="fill:#bdcf46" id="polygon24" />
    <g id="g48">
      <g id="g38">
        <g id="g34">
          <defs id="defs27">
            <path id="SVGID_3_" d="m 50.68,27.02 c 0,0 -12.23,24.85 -37.46,40.91 l 34.21,13.38 c 0,0 19.31,-12.62 31.41,-46.88 z" />
          </defs>
          <use style="clip-rule:evenodd;overflow:visible;fill:#bdcf46;fill-rule:evenodd" xlink:href="#SVGID_3_" id="use29" x="0" y="0" width="100%" height="100%" />
          <clipPath id="SVGID_4_">
            <use style="overflow:visible" xlink:href="#SVGID_3_" id="use31" x="0" y="0" width="100%" height="100%" />
          </clipPath>
        </g>
        <path d="m 50.68,27.02 28.16,7.41 C 66.74,68.69 47.43,81.31 47.43,81.31 L 13.22,67.93 C 38.44,51.87 50.68,27.02 50.68,27.02 m 0,-4.59 c -1.72,0 -3.32,0.96 -4.11,2.56 v 0 c -0.12,0.24 -12.04,23.94 -35.81,39.07 -1.46,0.93 -2.27,2.59 -2.1,4.31 0.17,1.72 1.29,3.2 2.89,3.83 l 34.21,13.38 c 0.54,0.21 1.11,0.32 1.67,0.32 0.88,0 1.75,-0.25 2.51,-0.75 C 50.78,84.6 70.69,71.28 83.17,35.96 83.6,34.75 83.5,33.42 82.9,32.28 82.3,31.15 81.25,30.32 80.01,29.99 L 51.86,22.58 c -0.4,-0.1 -0.8,-0.15 -1.18,-0.15 z" style="fill:#757f3f" id="path36" />
      </g>
      <path d="m 45.94,85.63 c 0.17,0.26 0.29,0.54 0.31,0.91 0.04,0.72 0.21,1.55 0,2.24 -0.11,0.32 0.14,0.23 -0.23,0.4 -0.3,0.14 -0.82,-0.23 -1.1,-0.34 -0.44,-0.17 -0.88,-0.31 -1.32,-0.49 -0.82,-0.34 -1.65,-0.67 -2.47,-1.01 -3.4,-1.38 -6.79,-2.77 -10.19,-4.15 -3.6,-1.47 -7.21,-2.94 -10.81,-4.41 -1.7,-0.69 -3.39,-1.45 -5.12,-2.07 -2.18,-0.79 -3.26,-0.88 -2.77,-3.52 0.21,-1.13 0.04,-2.26 0.17,-3.41 0.11,-1.01 0.21,-1.39 1.01,-2.06 1.13,-0.94 2.22,-1.81 1.84,-3.45 -0.46,-2.04 -1.74,-1.5 -3.3,-0.84 -1.55,0.77 -4.94,1.91 -4.85,4.13 0.26,6.79 -1.24,12.89 -2.7,19.43 -0.92,4.04 2.3,5.44 5.42,7.12 6.54,3.52 13.67,6.58 20.48,9.54 4,1.75 8.13,3.33 12.41,4.25 4.77,1.03 8.44,-2.12 11.86,-4.94 4.41,-3.63 8.59,-7.48 12.36,-11.78 8.77,-9.99 15.15,-21.79 18.95,-34.52 0.09,-0.3 0.11,-0.62 0.08,-0.93 -0.34,-2.74 -0.68,-5.48 -1.01,-8.22 -0.4,-3.27 -0.81,-6.54 -1.21,-9.81 -0.12,-1 -0.14,-2.14 -0.4,-3.14 -0.03,-0.12 -0.07,-0.23 -0.1,-0.35 C 83,33.43 82.36,32.67 81.42,33 c -1.1,0.38 -0.86,2.03 -1.11,2.95 -0.32,1.18 -0.67,2.33 -0.96,3.51 -0.6,2.45 -2.03,4.88 -3.19,7.1 -0.84,1.59 -1.71,3.01 -2.4,4.69 -0.53,1.3 -1.07,2.59 -1.63,3.88 -0.26,0.6 -0.82,1.24 -0.95,1.88 -0.14,0.65 0.14,1.53 0.22,2.19 0.49,3.83 1.3,7.61 1.54,11.47 0.11,1.79 0.29,3.92 -0.17,5.68 -0.87,3.32 -3.64,5.59 -5.53,8.3 -0.17,0.24 -2.39,2.33 -2.47,2.14 -0.4,-0.91 -0.24,-1.9 -0.15,-2.85 0.37,-4.02 0.1,-8.07 -0.11,-12.09 -0.04,-0.85 -0.04,-2.61 -1.16,-2.74 -0.64,-0.07 -1.07,-0.06 -1.61,0.31 -1.3,0.9 -2.21,2.29 -3.26,3.45 -1.43,1.58 -2.94,3.12 -4.57,4.48 -0.84,0.7 -1.65,1.42 -2.44,2.17 -1.09,0.83 -2.25,1.6 -3.47,2.21 -1.16,0.58 -3.38,0.54 -2.92,2.45 0.16,0.61 0.56,0.99 0.86,1.45 z m -2.37,16.49 c -0.24,0.19 -0.56,0.29 -0.95,0.27 -0.67,-0.04 -1.15,-0.37 -1.77,-0.57 -1.92,-0.63 -3.81,-1.37 -5.69,-2.12 -3.43,-1.37 -6.84,-2.82 -10.23,-4.29 -0.17,-0.07 -0.33,-0.14 -0.5,-0.21 -3.04,-1.31 -5.95,-2.67 -8.91,-4.16 -1.49,-0.75 -3.21,-1.27 -4.47,-2.42 -0.74,-0.68 -0.34,-2.34 0.65,-2.65 1.46,-0.45 3.61,1.18 4.84,1.8 4.65,2.32 9.55,4.1 14.36,6.06 3.58,1.46 7.17,2.92 10.76,4.39 0.54,0.22 1.19,0.32 1.74,0.58 0.66,0.32 0.66,0.75 0.76,1.42 0.12,0.72 -0.07,1.49 -0.59,1.9 z m 1.91,-6.45 c -0.64,0.36 -1.5,-0.23 -2.15,-0.49 -1.37,-0.56 -2.75,-1.12 -4.12,-1.68 -3.78,-1.54 -7.56,-3.08 -11.34,-4.62 -3.25,-1.33 -6.52,-2.62 -9.75,-4.01 -1.49,-0.64 -6.92,-2.03 -6.73,-4.07 0.06,-0.7 0.2,-1.91 1.2,-1.44 1.22,0.57 2.46,1.07 3.71,1.58 3.37,1.38 6.76,2.76 10.13,4.13 3.74,1.52 7.47,3.05 11.21,4.57 2.54,1.03 5.07,2.2 7.65,3.12 1.14,0.4 1.17,1.98 0.4,2.76 -0.07,0.06 -0.13,0.11 -0.21,0.15 z" style="fill:#757f3f" id="path40" />
      <g id="g46">
        <path d="m 28.69,53.78 c 0.15,-0.16 2.79,0.9 3.11,1.01 1.08,0.35 2.15,0.71 3.23,1.06 2.15,0.71 4.29,1.45 6.42,2.2 4.27,1.51 8.5,3.14 12.65,4.94 2.14,0.94 4.43,1.82 6.43,3.03 0.73,0.44 1.14,1.17 2.12,0.97 0.93,-0.19 1.55,-1.18 2.12,-1.85 0.78,-0.93 8.09,-10.76 8.17,-10.7 C 71.02,53 68.9,51.67 66.77,50.61 64.87,49.66 62.94,48.79 60.98,47.98 57.26,46.45 53.46,45.1 49.58,44.02 48.2,43.63 40.34,40.86 39.2,42.12 39.21,42.13 28.7,53.78 28.69,53.78 Z" style="clip-rule:evenodd;fill:#ffffff;fill-rule:evenodd" id="path42" />
        <path d="M 62.33,69.34 C 61,69.34 60.15,68.64 59.64,68.23 59.55,68.15 59.46,68.07 59.35,68 57.88,67.12 56.16,66.39 54.51,65.67 L 53.19,65.1 C 49.45,63.47 45.37,61.87 40.69,60.21 38.58,59.46 36.45,58.73 34.32,58.02 L 31.1,56.96 c -0.09,-0.03 -0.3,-0.11 -0.59,-0.22 -0.37,-0.14 -1.42,-0.54 -1.89,-0.68 -0.52,-0.02 -1.03,-0.22 -1.46,-0.6 -0.93,-0.85 -1,-2.28 -0.17,-3.22 0,0 0.01,-0.01 0.01,-0.01 L 37.5,40.59 c 0.98,-1.09 2.45,-1.09 2.92,-1.09 2.16,0 5.52,0.97 8.83,2.02 0.42,0.13 0.75,0.24 0.94,0.29 3.76,1.05 7.58,2.37 11.65,4.05 2.06,0.85 4.06,1.76 5.95,2.7 2.12,1.07 4.27,2.39 6.25,3.86 0.72,0.38 1.23,1.15 1.23,2.03 0,0.71 -0.33,1.35 -0.84,1.77 -0.64,0.81 -2.61,3.41 -4.09,5.38 -2.13,2.83 -3.46,4.59 -3.83,5.03 l -0.26,0.33 c -0.62,0.79 -1.56,1.98 -3.15,2.3 -0.24,0.05 -0.51,0.08 -0.77,0.08 z M 32.77,52.7 l 2.99,0.98 c 2.16,0.72 4.32,1.46 6.47,2.22 4.77,1.69 8.95,3.33 12.79,5 l 1.29,0.55 c 1.8,0.77 3.67,1.57 5.41,2.62 0.23,0.14 0.44,0.29 0.64,0.44 0.1,-0.13 0.22,-0.29 0.32,-0.41 l 0.34,-0.43 c 0.31,-0.37 2.11,-2.75 3.69,-4.85 1.27,-1.69 2.22,-2.94 2.95,-3.88 -1.29,-0.84 -2.6,-1.61 -3.91,-2.27 -1.79,-0.89 -3.69,-1.76 -5.64,-2.56 -3.9,-1.61 -7.54,-2.87 -11.14,-3.87 -0.22,-0.07 -0.6,-0.18 -1.09,-0.34 -1.67,-0.53 -5.56,-1.76 -7.36,-1.8 -1.24,1.37 -5.17,5.73 -7.75,8.6 z" style="fill:#757f3f" id="path44" />
      </g>
    </g>
    <path d="m 60.11,77.12 c -0.07,0.09 -0.14,0.17 -0.22,0.25 -1.74,1.77 -3.4,3.62 -5.14,5.39 -0.67,0.68 -1.33,1.36 -2.04,2.01 -0.46,0.41 -1.2,0.72 -1.55,1.23 -0.26,0.38 -0.18,0.9 -0.22,1.34 -0.33,3.45 -0.77,6.89 -1.07,10.33 -0.06,0.66 0.04,1.35 -0.16,1.99 -0.19,0.59 -0.4,1.37 0.43,1.05 0.95,-0.36 1.68,-1.17 2.39,-1.87 1.51,-1.47 3.15,-2.81 4.66,-4.29 1,-0.99 3.23,-2.83 3.57,-4.27 0.13,-0.57 0.08,-1.26 0.17,-1.84 0.06,-0.46 0.03,-0.96 0.09,-1.42 0.13,-1.1 0.15,-2.2 0.15,-3.31 0,-1.29 0.1,-2.58 0.08,-3.88 0,-0.56 0.02,-1.1 0.03,-1.65 0.01,-0.65 -0.26,-1.29 -0.26,-1.95 -0.39,0.2 -0.64,0.57 -0.91,0.89 z" style="clip-rule:evenodd;fill:#bdcf46;fill-rule:evenodd" id="path50" />
    <path d="m 81.84,48.46 c -0.15,-2.08 -0.44,-4.22 -0.98,-6.09 -0.29,-1 -0.76,0.86 -0.87,1.12 -0.25,0.59 -0.52,1.17 -0.76,1.75 -1.05,2.54 -2.53,4.86 -3.49,7.45 -0.3,0.8 -0.87,1.57 -1.08,2.39 -0.25,0.93 0.37,1.67 0.48,2.57 0.23,1.8 0.61,3.57 0.86,5.37 0.22,1.55 0.29,3.13 0.45,4.69 0.05,0.53 0.05,1.07 0.11,1.6 0.08,0.63 0.17,1.29 0.31,1.89 0.42,0.15 0.9,-1 1.06,-1.3 0.75,-1.47 1.9,-2.66 2.56,-4.19 0.69,-1.62 1.05,-3.4 1.14,-5.15 0.16,-2.94 0.4,-5.89 0.35,-8.83 -0.01,-1.04 -0.05,-2.14 -0.14,-3.27 z" style="clip-rule:evenodd;fill:#bdcf46;fill-rule:evenodd" id="path52" />
    <path d="m 49.58,92.76 -0.96,-2.08 c 1.37,-0.63 2.5,-1.71 3.69,-2.85 0.3,-0.29 0.61,-0.59 0.93,-0.88 0.52,-0.48 1.06,-0.95 1.6,-1.42 1.01,-0.88 1.96,-1.71 2.85,-2.63 0.33,-0.34 0.66,-0.67 1.01,-1 1.21,-1.18 2.34,-2.3 3.09,-3.72 l 2.03,1.06 c -0.91,1.73 -2.23,3.03 -3.51,4.29 -0.33,0.32 -0.65,0.64 -0.97,0.97 -0.96,0.98 -1.99,1.89 -2.98,2.75 -0.52,0.46 -1.05,0.92 -1.56,1.38 -0.3,0.27 -0.6,0.56 -0.9,0.84 -1.29,1.24 -2.6,2.5 -4.32,3.29 z" style="fill:#757f3f" id="path54" />
    <path d="m 48.47,99.64 -0.62,-0.39 0.52,-1.11 -0.53,-0.82 c 0.71,-0.46 1.47,-1.03 2.19,-1.64 0.33,-0.29 0.68,-0.56 1.03,-0.83 0.56,-0.44 1.13,-0.88 1.63,-1.39 0.84,-0.86 1.71,-1.68 2.56,-2.49 l 1.14,-1.08 c 0.83,-0.81 1.78,-1.8 2.72,-2.88 l 0.29,-0.33 c 0.34,-0.38 0.68,-0.75 0.96,-1.16 0.15,-0.22 0.35,-0.43 0.57,-0.64 0.11,-0.11 0.27,-0.27 0.31,-0.34 l 2.1,0.92 c -0.2,0.45 -0.53,0.79 -0.8,1.05 -0.1,0.1 -0.21,0.2 -0.29,0.31 -0.34,0.49 -0.73,0.93 -1.14,1.39 l -0.28,0.31 c -0.98,1.12 -1.97,2.16 -2.85,3.01 l -1.15,1.09 c -0.84,0.8 -1.69,1.6 -2.51,2.44 -0.59,0.59 -1.23,1.1 -1.85,1.58 -0.32,0.25 -0.65,0.51 -0.96,0.77 -0.79,0.68 -1.63,1.31 -2.43,1.82 z" style="fill:#757f3f" id="path56" />
    <path d="m 74.24,62.15 -1.5,-1.74 c 1.15,-0.98 1.94,-2.33 2.77,-3.75 0.21,-0.37 0.43,-0.74 0.65,-1.1 0.37,-0.61 0.76,-1.21 1.15,-1.8 0.73,-1.12 1.41,-2.18 2.02,-3.31 0.23,-0.41 0.46,-0.83 0.69,-1.24 0.83,-1.47 1.62,-2.86 1.95,-4.42 l 2.24,0.47 c -0.4,1.91 -1.31,3.53 -2.19,5.09 -0.23,0.4 -0.45,0.79 -0.67,1.19 -0.65,1.21 -1.39,2.36 -2.11,3.47 -0.38,0.58 -0.76,1.16 -1.12,1.76 -0.22,0.35 -0.43,0.7 -0.63,1.06 -0.9,1.51 -1.82,3.08 -3.25,4.32 z" style="fill:#757f3f" id="path58" />
    <path d="m 75.07,69.07 -0.7,-0.21 0.19,-1.21 -0.74,-0.64 c 0.56,-0.64 1.13,-1.4 1.66,-2.18 0.24,-0.37 0.5,-0.72 0.76,-1.08 0.42,-0.58 0.85,-1.16 1.19,-1.78 0.58,-1.06 1.18,-2.08 1.78,-3.1 L 80,57.5 c 0.58,-1.01 1.22,-2.22 1.83,-3.51 l 0.19,-0.39 c 0.22,-0.46 0.44,-0.91 0.6,-1.38 0.08,-0.25 0.22,-0.51 0.37,-0.77 0.07,-0.13 0.19,-0.34 0.2,-0.42 l 2.28,0.3 c -0.07,0.49 -0.3,0.9 -0.48,1.23 -0.07,0.13 -0.15,0.26 -0.19,0.38 -0.2,0.56 -0.45,1.1 -0.72,1.65 l -0.18,0.38 c -0.64,1.35 -1.3,2.62 -1.92,3.68 l -0.8,1.37 c -0.59,1 -1.18,2 -1.74,3.04 -0.4,0.73 -0.88,1.39 -1.34,2.03 -0.25,0.33 -0.49,0.66 -0.71,1 -0.57,0.87 -1.22,1.7 -1.84,2.42 z" style="fill:#757f3f" id="path60" />
    <path d="m 80.36,62.26 c -1.51,-1.04 -2.66,-2.36 -3.04,-3.97 -0.48,-2.06 0.74,-3.27 2.38,-4.24 6,-3.56 11.43,-8.01 16.17,-13.12 2.28,-2.45 4.49,-4.78 8.13,-4.5 2.44,0.19 4.53,1.62 6.18,3.35 1.94,2.03 3.8,4.14 5.99,5.9 2.2,1.77 4.75,3.14 7.21,4.51 1.23,0.69 2.56,0.88 3.39,2.17 0.69,1.09 0.57,2.3 -0.37,3.19 -3.25,3.11 -8.45,1.99 -12.06,0.32 -0.45,-0.21 -0.9,-0.42 -1.41,-0.43 -0.86,-0.02 -0.88,0.49 -0.64,1.2 0.19,0.58 0.74,0.93 1.21,1.28 2.23,1.68 -1.99,2.71 -3.06,2.67 -2.27,-0.07 -4.48,-0.91 -6.55,-1.82 -0.33,-0.14 -0.78,-0.41 -1.16,-0.27 -1.28,0.47 0.75,2.09 0.94,2.61 0.56,1.55 -1.18,1.99 -2.35,2.09 -2.36,0.2 -4.34,-0.67 -6.33,-1.81 -0.63,-0.36 -2.41,-0.98 -2.16,0.35 0.45,2.41 -0.26,3.57 -2.8,3.5 -2.7,-0.07 -6.82,-1.03 -9.67,-2.98 z" style="clip-rule:evenodd;fill:#ffffff;fill-rule:evenodd" id="path62" />
    <g id="g82">
      <path d="m 88.61,49.53 c 0,0 8.48,-7.17 10.45,-8.91 1.97,-1.73 3.36,-2.32 4.75,-2.2 1.38,0.12 3.51,1.48 5.98,3.49 2.48,2.02 4.51,3.93 4.51,3.93 0,0 -8.08,-5.59 -11.2,-5.13 -3.12,0.46 -5.49,2.66 -7.69,4.28 -2.2,1.62 -6.8,4.54 -6.8,4.54 z" style="clip-rule:evenodd;fill:#40c0e7;fill-rule:evenodd" id="path64" />
      <g id="g80">
        <defs id="defs67">
          <path id="SVGID_5_" d="m 80.36,62.26 c -1.51,-1.04 -2.66,-2.36 -3.04,-3.97 -0.48,-2.06 0.74,-3.27 2.38,-4.24 6,-3.56 11.43,-8.01 16.17,-13.12 2.28,-2.45 4.49,-4.78 8.13,-4.5 2.44,0.19 4.53,1.62 6.18,3.35 1.94,2.03 3.8,4.14 5.99,5.9 2.2,1.77 4.75,3.14 7.21,4.51 1.23,0.69 2.56,0.88 3.39,2.17 0.69,1.09 0.57,2.3 -0.37,3.19 -3.25,3.11 -8.45,1.99 -12.06,0.32 -0.45,-0.21 -0.9,-0.42 -1.41,-0.43 -0.86,-0.02 -0.88,0.49 -0.64,1.2 0.19,0.58 0.74,0.93 1.21,1.28 2.23,1.68 -1.99,2.71 -3.06,2.67 -2.27,-0.07 -4.48,-0.91 -6.55,-1.82 -0.33,-0.14 -0.78,-0.41 -1.16,-0.27 -1.28,0.47 0.75,2.09 0.94,2.61 0.56,1.55 -1.18,1.99 -2.35,2.09 -2.36,0.2 -4.34,-0.67 -6.33,-1.81 -0.63,-0.36 -2.41,-0.98 -2.16,0.35 0.45,2.41 -0.26,3.57 -2.8,3.5 -2.7,-0.07 -6.82,-1.03 -9.67,-2.98 z" />
        </defs>
        <clipPath id="SVGID_6_">
          <use style="overflow:visible" xlink:href="#SVGID_5_" id="use69" x="0" y="0" width="100%" height="100%" />
        </clipPath>
        <path d="m 104.65,46 c 0,0 0.86,-0.86 1.86,-0.43 1,0.43 5.57,5.83 9.6,7.45 5.88,2.37 9.82,1.94 11.4,-0.14 0.31,-0.41 -0.79,5.02 -0.79,5.02 l -7.74,1 -5.45,-3.23 c 0.01,0 -5.01,-2.36 -8.88,-9.67 z" style="clip-rule:evenodd;fill:#40c0e7;fill-rule:evenodd" clip-path="url(#SVGID_6_)" id="path72" />
        <path d="m 97.12,50.58 c 0,0 1.22,-0.86 2.28,0.48 0.71,0.9 4.64,6.08 9.05,7.55 2.52,0.84 6.52,0.5 6.52,0.5 l -2.98,2.81 -8.48,-3.02 c -0.01,0 -5.24,-4.95 -6.39,-8.32 z" style="clip-rule:evenodd;fill:#40c0e7;fill-rule:evenodd" clip-path="url(#SVGID_6_)" id="path74" />
        <path d="m 88.24,55.31 c 0,0 1.23,-0.9 1.92,-0.21 0.7,0.69 6.21,4.32 7.86,5.54 2.84,2.12 6.14,0.97 6.14,0.97 0,0 -0.01,2.27 -0.47,2.38 -0.46,0.11 -7.05,-0.23 -7.05,-0.23 l -2.51,-2.65 c -0.02,0.01 -3.67,-2.21 -5.89,-5.8 z" style="clip-rule:evenodd;fill:#40c0e7;fill-rule:evenodd" clip-path="url(#SVGID_6_)" id="path76" />
        <path d="m 80.34,53.37 c 0,0 -1.85,1.39 -1.27,3.01 0.58,1.62 4.29,4.43 7.62,6.47 3.98,2.43 6.49,0.86 6.49,0.86 l -1.52,2.5 -7.85,-1.04 -7.86,-5.77 0.47,-4.85 z" style="clip-rule:evenodd;fill:#40c0e7;fill-rule:evenodd" clip-path="url(#SVGID_6_)" id="path78" />
      </g>
    </g>
  </g>
</svg>
